{
  "accessors": [
    {
      "bufferView": 2,
      "componentType": 5126,
      "count": 33080,
      "max": [
        1.9326045513153076,
        1.1030267477035522,
        1.1052075624465942
      ],
      "min": [
        -1.9326045513153076,
        -1.1030267477035522,
        -1.1052075624465942
      ],
      "type": "VEC3"
    },
    {
      "bufferView": 2,
      "byteOffset": 396960,
      "componentType": 5126,
      "count": 33080,
      "max": [
        0.999023973941803,
        0.9999995827674866,
        1.0
      ],
      "min": [
        -0.9990239143371582,
        -0.9999995827674866,
        -1.0
      ],
      "type": "VEC3"
    },
    {
      "bufferView": 3,
      "componentType": 5126,
      "count": 33080,
      "max": [
        0.8999999761581421,
        0.0,
        0.0,
        1.0
      ],
      "min": [
        0.8999999761581421,
        0.0,
        0.0,
        1.0
      ],
      "type": "VEC4"
    },
    {
      "bufferView": 1,
      "componentType": 5126,
      "count": 33080,
      "max": [
        1.0,
        1.0
      ],
      "min": [
        0.0,
        0.0
      ],
      "type": "VEC2"
    },
    {
      "bufferView": 0,
      "componentType": 5125,
      "count": 57600,
      "type": "SCALAR"
    },
    {
      "bufferView": 2,
      "byteOffset": 793920,
      "componentType": 5126,
      "count": 3200,
      "max": [
        1.9276045560836792,
        1.0980267524719238,
        1.100197672843933
      ],
      "min": [
        -1.9276045560836792,
        -1.0980267524719238,
        -1.100197672843933
      ],
      "type": "VEC3"
    },
    {
      "bufferView": 2,
      "byteOffset": 832320,
      "componentType": 5126,
      "count": 3200,
      "max": [
        0.7077383995056152,
        0.7059220671653748,
        0.7063410878181458
      ],
      "min": [
        -0.7077383995056152,
        -0.70592200756073,
        -0.7063410878181458
      ],
      "type": "VEC3"
    },
    {
      "bufferView": 3,
      "byteOffset": 529280,
      "componentType": 5126,
      "count": 3200,
      "max": [
        0.8999999761581421,
        0.0,
        0.0,
        1.0
      ],
      "min": [
        0.8999999761581421,
        0.0,
        0.0,
        1.0
      ],
      "type": "VEC4"
    },
    {
      "bufferView": 1,
      "byteOffset": 264640,
      "componentType": 5126,
      "count": 3200,
      "max": [
        1.0,
        1.0
      ],
      "min": [
        0.0,
        0.0
      ],
      "type": "VEC2"
    },
    {
      "bufferView": 0,
      "byteOffset": 230400,
      "componentType": 5125,
      "count": 4800,
      "type": "SCALAR"
    },
    {
      "bufferView": 2,
      "byteOffset": 870720,
      "componentType": 5126,
      "count": 45022,
      "max": [
        0.9329304099082947,
        0.9809411764144897,
        0.794343113899231
      ],
      "min": [
        -0.9329304099082947,
        -0.9809412360191345,
        -0.7943431735038757
      ],
      "type": "VEC3"
    },
    {
      "bufferView": 2,
      "byteOffset": 1410984,
      "componentType": 5126,
      "count": 45022,
      "max": [
        0.9999993443489075,
        0.9999876022338867,
        1.0
      ],
      "min": [
        -0.9999989867210388,
        -0.9998923540115356,
        -1.0
      ],
      "type": "VEC3"
    },
    {
      "bufferView": 3,
      "byteOffset": 580480,
      "componentType": 5126,
      "count": 45022,
      "max": [
        0.8999999761581421,
        0.8999999761581421,
        0.8999999761581421,
        1.0
      ],
      "min": [
        0.0,
        0.0,
        0.0,
        1.0
      ],
      "type": "VEC4"
    },
    {
      "bufferView": 1,
      "byteOffset": 290240,
      "componentType": 5126,
      "count": 45022,
      "max": [
        1.0,
        1.0
      ],
      "min": [
        0.0,
        0.0
      ],
      "type": "VEC2"
    },
    {
      "bufferView": 0,
      "byteOffset": 249600,
      "componentType": 5125,
      "count": 75522,
      "type": "SCALAR"
    },
    {
      "bufferView": 2,
      "byteOffset": 1951248,
      "componentType": 5126,
      "count": 2208,
      "max": [
        0.9279304146766663,
        0.975683867931366,
        0.7893444299697876
      ],
      "min": [
        -0.9279304146766663,
        -0.9756839275360107,
        -0.7893444299697876
      ],
      "type": "VEC3"
    },
    {
      "bufferView": 2,
      "byteOffset": 1977744,
      "componentType": 5126,
      "count": 2208,
      "max": [
        0.9624499082565308,
        0.9999169707298279,
        1.0
      ],
      "min": [
        -0.9983707666397095,
        -0.9999169707298279,
        -1.0
      ],
      "type": "VEC3"
    },
    {
      "bufferView": 3,
      "byteOffset": 1300832,
      "componentType": 5126,
      "count": 2208,
      "max": [
        0.8999999761581421,
        0.44999998807907104,
        0.8999999761581421,
        1.0
      ],
      "min": [
        0.0,
        0.0,
        0.0,
        1.0
      ],
      "type": "VEC4"
    },
    {
      "bufferView": 1,
      "byteOffset": 650416,
      "componentType": 5126,
      "count": 2208,
      "max": [
        0.0,
        0.0
      ],
      "min": [
        0.0,
        0.0
      ],
      "type": "VEC2"
    },
    {
      "bufferView": 0,
      "byteOffset": 551688,
      "componentType": 5125,
      "count": 5430,
      "type": "SCALAR"
    },
    {
      "bufferView": 2,
      "byteOffset": 2004240,
      "componentType": 5126,
      "count": 6880,
      "max": [
        1.651233196258545,
        1.0080267190933228,
        1.0100197792053223
      ],
      "min": [
        -1.651233196258545,
        -0.8500197529792786,
        -0.6977308392524719
      ],
      "type": "VEC3"
    },
    {
      "bufferView": 2,
      "byteOffset": 2086800,
      "componentType": 5126,
      "count": 6880,
      "max": [
        0.707801878452301,
        0.8763074278831482,
        0.706394374370575
      ],
      "min": [
        -0.7078024744987488,
        -0.9980266690254211,
        -0.9685832262039185
      ],
      "type": "VEC3"
    },
    {
      "bufferView": 3,
      "byteOffset": 1336160,
      "componentType": 5126,
      "count": 6880,
      "max": [
        0.8999999761581421,
        0.8999999761581421,
        0.0,
        1.0
      ],
      "min": [
        0.8999999761581421,
        0.8999999761581421,
        0.0,
        1.0
      ],
      "type": "VEC4"
    },
    {
      "bufferView": 1,
      "byteOffset": 668080,
      "componentType": 5126,
      "count": 6880,
      "max": [
        1.0,
        1.0
      ],
      "min": [
        0.0,
        0.0
      ],
      "type": "VEC2"
    },
    {
      "bufferView": 0,
      "byteOffset": 573408,
      "componentType": 5125,
      "count": 10320,
      "type": "SCALAR"
    },
    {
      "bufferView": 2,
      "byteOffset": 2169360,
      "componentType": 5126,
      "count": 1376,
      "max": [
        2.0376055240631104,
        0.3431696593761444,
        0.4985778033733368
      ],
      "min": [
        -2.0376055240631104,
        -0.4958326518535614,
        -0.34781041741371155
      ],
      "type": "VEC3"
    },
    {
      "bufferView": 2,
      "byteOffset": 2185872,
      "componentType": 5126,
      "count": 1376,
      "max": [
        1.0,
        0.9997801780700684,
        0.9997802376747131
      ],
      "min": [
        -1.0,
        -0.9997801780700684,
        -0.9997801780700684
      ],
      "type": "VEC3"
    },
    {
      "bufferView": 3,
      "byteOffset": 1446240,
      "componentType": 5126,
      "count": 1376,
      "max": [
        0.8999999761581421,
        0.8999999761581421,
        0.0,
        1.0
      ],
      "min": [
        0.8999999761581421,
        0.8999999761581421,
        0.0,
        1.0
      ],
      "type": "VEC4"
    },
    {
      "bufferView": 0,
      "byteOffset": 614688,
      "componentType": 5125,
      "count": 2544,
      "type": "SCALAR"
    },
    {
      "bufferView": 4,
      "componentType": 5126,
      "count": 300,
      "max": [
        10.0
      ],
      "min": [
        0.01666666753590107
      ],
      "type": "SCALAR"
    },
    {
      "bufferView": 5,
      "componentType": 5126,
      "count": 300,
      "max": [
        0.9999970197677612,
        0.0,
        0.0,
        1.0
      ],
      "min": [
        -0.8653233051300049,
        0.0,
        0.0,
        -0.49211177229881287
      ],
      "type": "VEC4"
    },
    {
      "bufferView": 4,
      "byteOffset": 1200,
      "componentType": 5126,
      "count": 300,
      "max": [
        10.0
      ],
      "min": [
        0.01666666753590107
      ],
      "type": "SCALAR"
    },
    {
      "bufferView": 5,
      "byteOffset": 4800,
      "componentType": 5126,
      "count": 300,
      "max": [
        8.343904511209379e-17,
        0.9999922513961792,
        8.343904511209379e-17,
        1.0
      ],
      "min": [
        -8.659082823904744e-17,
        -0.8630601167678833,
        -8.659082823904744e-17,
        -0.49215593934059143
      ],
      "type": "VEC4"
    },
    {
      "bufferView": 4,
      "byteOffset": 2400,
      "componentType": 5126,
      "count": 600,
      "max": [
        10.0
      ],
      "min": [
        0.01666666753590107
      ],
      "type": "SCALAR"
    },
    {
      "bufferView": 5,
      "byteOffset": 9600,
      "componentType": 5126,
      "count": 600,
      "max": [
        0.9999922513961792,
        0.0,
        0.0,
        1.0
      ],
      "min": [
        -0.8630601167678833,
        0.0,
        0.0,
        -0.4986475110054016
      ],
      "type": "VEC4"
    },
    {
      "bufferView": 4,
      "byteOffset": 4800,
      "componentType": 5126,
      "count": 600,
      "max": [
        10.0
      ],
      "min": [
        0.01666666753590107
      ],
      "type": "SCALAR"
    },
    {
      "bufferView": 5,
      "byteOffset": 19200,
      "componentType": 5126,
      "count": 600,
      "max": [
        0.9999987483024597,
        0.0,
        0.0,
        1.0
      ],
      "min": [
        -0.8623006343841553,
        0.0,
        0.0,
        -0.4994325339794159
      ],
      "type": "VEC4"
    }
  ],
  "animations": [
    {
      "channels": [
        {
          "sampler": 0,
          "target": {
            "node": 4,
            "path": "rotation"
          }
        },
        {
          "sampler": 1,
          "target": {
            "node": 7,
            "path": "rotation"
          }
        },
        {
          "sampler": 2,
          "target": {
            "node": 12,
            "path": "rotation"
          }
        },
        {
          "sampler": 3,
          "target": {
            "node": 14,
            "path": "rotation"
          }
        }
      ],
      "name": "Main",
      "samplers": [
        {
          "input": 29,
          "interpolation": "LINEAR",
          "output": 30
        },
        {
          "input": 31,
          "interpolation": "LINEAR",
          "output": 32
        },
        {
          "input": 33,
          "interpolation": "LINEAR",
          "output": 34
        },
        {
          "input": 35,
          "interpolation": "LINEAR",
          "output": 36
        }
      ]
    }
  ],
  "asset": {
    "extras": {
      "author": "indierocktopus (https://sketchfab.com/indierocktopus)",
      "license": "CC-BY-4.0 (http://creativecommons.org/licenses/by/4.0/)",
      "source": "https://sketchfab.com/3d-models/primary-ion-drive-d3f50a66fee74c6588dd9bc92f7fe7b3",
      "title": "Primary Ion Drive ///"
    },
    "generator": "Sketchfab-12.66.0",
    "version": "2.0"
  },
  "bufferViews": [
    {
      "buffer": 0,
      "byteLength": 624864,
      "name": "floatBufferViews",
      "target": 34963
    },
    {
      "buffer": 0,
      "byteLength": 723120,
      "byteOffset": 624864,
      "byteStride": 8,
      "name": "floatBufferViews",
      "target": 34962
    },
    {
      "buffer": 0,
      "byteLength": 2202384,
      "byteOffset": 1347984,
      "byteStride": 12,
      "name": "floatBufferViews",
      "target": 34962
    },
    {
      "buffer": 0,
      "byteLength": 1468256,
      "byteOffset": 3550368,
      "byteStride": 16,
      "name": "floatBufferViews",
      "target": 34962
    },
    {
      "buffer": 0,
      "byteLength": 7200,
      "byteOffset": 5018624,
      "name": "floatBufferViews"
    },
    {
      "buffer": 0,
      "byteLength": 28800,
      "byteOffset": 5025824,
      "byteStride": 16,
      "name": "floatBufferViews"
    }
  ],
  "buffers": [
    {
      "byteLength": 5054624,
      "uri": "scene.bin"
    }
  ],
  "materials": [
    {
      "doubleSided": true,
      "emissiveFactor": [
        0.01892488367539642,
        0.01892488367539642,
        0.01892488367539642
      ],
      "name": "constant1",
      "pbrMetallicRoughness": {
        "metallicFactor": 0.0,
        "roughnessFactor": 0.6
      }
    },
    {
      "alphaMode": "BLEND",
      "name": "HoloFillDark",
      "pbrMetallicRoughness": {
        "baseColorFactor": [
          0.0,
          0.0,
          0.0,
          0.8092606707317073
        ],
        "metallicFactor": 0.9224466463414634,
        "roughnessFactor": 0.7029344512195121
      }
    },
    {
      "doubleSided": true,
      "emissiveFactor": [
        0.32202743902439024,
        0.2905589494486052,
        0.0
      ],
      "name": "constant2",
      "pbrMetallicRoughness": {
        "baseColorFactor": [
          0.9700679790705267,
          0.3214888759924262,
          0.0,
          1.0
        ],
        "metallicFactor": 0.0,
        "roughnessFactor": 0.6
      }
    }
  ],
  "meshes": [
    {
      "name": "circle_constant1_0",
      "primitives": [
        {
          "attributes": {
            "COLOR_0": 2,
            "NORMAL": 1,
            "POSITION": 0,
            "TEXCOORD_0": 3
          },
          "indices": 4,
          "material": 0,
          "mode": 4
        }
      ]
    },
    {
      "name": "circle_HoloFillDark_0",
      "primitives": [
        {
          "attributes": {
            "COLOR_0": 7,
            "NORMAL": 6,
            "POSITION": 5,
            "TEXCOORD_0": 8
          },
          "indices": 9,
          "material": 1,
          "mode": 4
        }
      ]
    },
    {
      "name": "geo1_constant1_0",
      "primitives": [
        {
          "attributes": {
            "COLOR_0": 12,
            "NORMAL": 11,
            "POSITION": 10,
            "TEXCOORD_0": 13
          },
          "indices": 14,
          "material": 0,
          "mode": 4
        }
      ]
    },
    {
      "name": "geo1_HoloFillDark_0",
      "primitives": [
        {
          "attributes": {
            "COLOR_0": 17,
            "NORMAL": 16,
            "POSITION": 15,
            "TEXCOORD_0": 18
          },
          "indices": 19,
          "material": 1,
          "mode": 4
        }
      ]
    },
    {
      "name": "circle1_constant2_0",
      "primitives": [
        {
          "attributes": {
            "COLOR_0": 22,
            "NORMAL": 21,
            "POSITION": 20,
            "TEXCOORD_0": 23
          },
          "indices": 24,
          "material": 2,
          "mode": 4
        }
      ]
    },
    {
      "name": "circle2_constant2_0",
      "primitives": [
        {
          "attributes": {
            "COLOR_0": 27,
            "NORMAL": 26,
            "POSITION": 25
          },
          "indices": 28,
          "material": 2,
          "mode": 4
        }
      ]
    }
  ],
  "nodes": [
    {
      "children": [
        1
      ],
      "matrix": [
        1.0,
        0.0,
        0.0,
        0.0,
        0.0,
        2.220446049250313e-16,
        -1.0,
        0.0,
        0.0,
        1.0,
        2.220446049250313e-16,
        0.0,
        0.0,
        0.0,
        0.0,
        1.0
      ],
      "name": "Sketchfab_model"
    },
    {
      "children": [
        2
      ],
      "matrix": [
        1.0,
        0.0,
        0.0,
        0.0,
        0.0,
        0.0,
        1.0,
        0.0,
        0.0,
        -1.0,
        0.0,
        0.0,
        0.0,
        0.0,
        0.0,
        1.0
      ],
      "name": "f10517d4966d42c99c9bc47c460a132f.fbx"
    },
    {
      "children": [
        3
      ],
      "name": "Object_2"
    },
    {
      "children": [
        4,
        7,
        10,
        12,
        14,
        16
      ],
      "name": "RootNode"
    },
    {
      "children": [
        5,
        6
      ],
      "name": "circle"
    },
    {
      "mesh": 0,
      "name": "circle_constant1_0"
    },
    {
      "mesh": 1,
      "name": "circle_HoloFillDark_0"
    },
    {
      "children": [
        8,
        9
      ],
      "name": "geo1"
    },
    {
      "mesh": 2,
      "name": "geo1_constant1_0"
    },
    {
      "mesh": 3,
      "name": "geo1_HoloFillDark_0"
    },
    {
      "children": [
        11
      ],
      "name": "cam1",
      "rotation": [
        -0.0,
        0.7071068286895752,
        0.0,
        0.7071068286895752
      ],
      "translation": [
        0.0,
        0.0,
        8.800000190734863
      ]
    },
    {
      "name": "Object_11"
    },
    {
      "children": [
        13
      ],
      "name": "circle1"
    },
    {
      "mesh": 4,
      "name": "circle1_constant2_0"
    },
    {
      "children": [
        15
      ],
      "name": "circle2"
    },
    {
      "mesh": 5,
      "name": "circle2_constant2_0"
    },
    {
      "children": [
        17
      ],
      "name": "cam2",
      "rotation": [
        -0.1326913982629776,
        0.44303983449935913,
        -0.24126282334327698,
        0.8531711101531982
      ],
      "translation": [
        -4.1299848556518555,
        4.451593399047852,
        5.820067405700684
      ]
    },
    {
      "name": "Object_17"
    }
  ],
  "scene": 0,
  "scenes": [
    {
      "name": "Sketchfab_Scene",
      "nodes": [
        0
      ]
    }
  ]
}
